# xmcd CD database file
#
# Track frame offsets:
#	150
#	14967
#	26437
#	45748
#	66924
#	82144
#	98129
#	112038
#	129011
#	141082
#	151255
#	162264
#	173978
#	189981
#	203048
#
# Disc length: 2871 seconds
#
# Revision: 0
# Processed by: cddbd v1.5.2PL0 Copyright (c) Steve Scherf et al.
# Submitted via: CDex 1.51
#
DISCID=ca0b350f
DTITLE=Los Amigos - Cubajazz Nº 6
DYEAR=2006
DGENRE=Jazz
TTITLE0=Tu Mi Delirio
TTITLE1=Imagenes
TTITLE2=Tony Y Jesusito
TTITLE3=De Ti Enamorado
TTITLE4=No Puedo Ser Feliz
TTITLE5=Añorado Encuentro
TTITLE6=Tres Palabras
TTITLE7=Algo Nueno
TTITLE8=Chacha Blues
TTITLE9=Si Me Dices Que Si
TTITLE10=Y Decidete Mi Amor
TTITLE11=Si Tu Permiso
TTITLE12=Lazara Y Gegorgina
TTITLE13=Eva
TTITLE14=Hay Que Recordar
EXTD=YEAR: 2006
EXTT0=
EXTT1=
EXTT2=
EXTT3=
EXTT4=
EXTT5=
EXTT6=
EXTT7=
EXTT8=
EXTT9=
EXTT10=
EXTT11=
EXTT12=
EXTT13=
EXTT14=
PLAYORDER=
